<svg height='300px' width='300px'  fill="#FFFFFF" xmlns="http://www.w3.org/2000/svg" xmlns:xlink="http://www.w3.org/1999/xlink" version="1.1" x="0px" y="0px" viewBox="0 0 90 90" enable-background="new 0 0 90 90" xml:space="preserve"><path fill="#FFFFFF" d="M86.82,55.635c-0.193-0.348-0.588-0.537-0.98-0.465c-0.079,0.016-8.041,1.455-14.721,1.455  c-0.53,0-1.044-0.01-1.528-0.027c-2.793-0.104-5.878-0.656-8.566-1.279c0.935-0.545,1.043-1.27,1.021-1.662  c-0.044-0.813-0.746-1.592-1.698-2.283c2.999-0.078,5.263-0.777,6.733-2.082c1.161-1.031,1.164-1.953,0.962-2.545  c-0.413-1.205-2.047-2.051-5.135-2.657c3.553-1.166,8.117-3.105,9.415-5.663c0.472-0.93,0.265-1.624,0.009-2.041  c-0.672-1.096-2.44-1.584-5.732-1.584c-1.797,0-3.707,0.153-5.171,0.306c5.069-6.255,5.173-12.586,2.912-16.102  c-0.73-1.14-1.571-1.717-2.497-1.717c-2.202,0-3.817,3.203-5.862,7.258c-0.218,0.433-0.438,0.869-0.661,1.305  c-2.494,4.883-8.753,9.713-13.032,11.16c-2.043,0.69-3.186,1.57-3.597,2.769c-0.544,1.585,0.412,3.235,1.438,4.788  c0.623,0.943,0.971,1.75,1.164,2.37c-2.431-0.917-7.142-2.682-9.107-3.343c-0.601-0.201-1.203-0.303-1.79-0.303  c-2.426,0-4.62,1.709-6.524,5.081c-0.792,1.402-1.699,2.584-2.511,3.504l-7.052-7.094c-0.174-0.174-0.409-0.273-0.656-0.274  c-0.251-0.011-0.482,0.097-0.658,0.271l-9.657,9.6c-0.175,0.174-0.273,0.408-0.273,0.656c-0.001,0.246,0.096,0.482,0.27,0.656  l16.645,16.746c0.182,0.182,0.42,0.275,0.658,0.275c0.237,0,0.475-0.092,0.656-0.271l9.657-9.6c0.363-0.361,0.365-0.951,0.003-1.314  l-6.962-7.004c0.694-0.127,1.415-0.211,2.107-0.211c0.425,0,0.818,0.033,1.17,0.098c0.728,0.131,2.024,2.059,3.169,3.76  c2.822,4.195,7.089,10.537,14.497,10.805c0.259,0.01,0.516,0.016,0.771,0.016c8.926,0,14.777-5.549,16.463-7.375  c5.521,2.623,10.502,3.186,13.758,3.186c2.04,0,3.271-0.225,3.324-0.234c0.197-0.037,0.378-0.139,0.515-0.285l6.93-7.568  C86.963,56.42,87.014,55.984,86.82,55.635z M20.64,70.469L5.307,55.041l7.979-7.93l1.608,13.734l13.725,1.693L20.64,70.469z   M28.163,61.359l-12.264-1.514l-1.438-12.271l5.61,5.645c-0.599,0.57-0.995,0.879-1.005,0.885c-0.373,0.285-0.476,0.801-0.24,1.207  c0.235,0.404,0.735,0.57,1.166,0.389c0.017-0.008,0.785-0.328,1.889-0.66L28.163,61.359z M66.283,47.344  c-0.003,0.047-0.086,0.245-0.437,0.557c-1.511,1.34-4.136,1.621-6.072,1.621c-1.498,0-2.785-0.168-3.342-0.252l0,0h-0.001  c-0.044-0.008-0.084-0.015-0.12-0.02c-0.13-0.022-0.346-0.067-0.558-0.141c-0.306-0.619-0.972-1.18-1.662-1.625  c1.312-0.113,2.837-0.439,3.604-1.297c0.228-0.252,0.377-0.541,0.454-0.854c0.028,0.004,0.057,0.011,0.086,0.013  c0.02,0.002,2.051,0.14,4.123,0.53C65.98,46.561,66.28,47.342,66.283,47.344z M66.599,36.66c3.659,0,4.141,0.686,4.146,0.686  c0,0,0.004,0.072-0.08,0.239c-1.35,2.661-8.602,4.946-11.972,5.785l-0.875,0.188c-0.783-1.178-2.608-1.563-4.276-1.647  c2.376-1.129,5.182-2.854,5.528-4.649c0.053,0.001,0.104-0.002,0.157-0.01C59.266,37.244,63.214,36.66,66.599,36.66z M26.098,52.453  c-1.039,0-2.112,0.158-3.093,0.371c0.723-0.848,1.499-1.879,2.215-3.074c0.185,0.128,0.396,0.373,0.593,0.845l0.125,0.282  l0.301,0.053c0.136,0.023,1.127,0.247,1.271,1.637C27.072,52.492,26.599,52.453,26.098,52.453z M78.614,62.783  c-0.448,0.061-1.39,0.158-2.689,0.158c-3.182,0-8.12-0.572-13.574-3.305c-0.389-0.195-0.864-0.092-1.14,0.248  c-0.06,0.074-6.257,7.596-16.21,7.232c-6.463-0.234-10.254-5.869-13.022-9.986c-1.27-1.887-2.272-3.375-3.339-4.102  c0.021-0.864-0.175-1.588-0.592-2.156c-0.431-0.59-0.979-0.852-1.322-0.965c-0.276-0.559-0.607-0.911-0.941-1.125  c1.464-2.41,3.013-3.632,4.611-3.632c0.386,0,0.788,0.069,1.198,0.207c2.615,0.876,10.458,3.853,10.536,3.882  c0.271,0.104,0.575,0.074,0.821-0.079c0.247-0.153,0.407-0.413,0.435-0.702c0.02-0.209,0.139-2.123-1.705-4.916  c-0.916-1.385-1.475-2.453-1.231-3.161c0.199-0.583,1.041-1.14,2.433-1.61c4.606-1.558,11.304-6.618,14.094-12.075  c0.224-0.44,0.446-0.88,0.664-1.314c1.328-2.632,3.146-6.236,4.203-6.236c0.239,0,0.588,0.323,0.935,0.863  c2.08,3.235,1.64,9.441-4.18,15.49c-0.104-0.109-0.21-0.198-0.313-0.265c-1.041-0.688-2.99-0.462-5.96,0.691  c-1.88,0.73-5.983,2.839-6.592,3.153h-0.001l-0.038,0.02c-0.015,0.008-0.026,0.014-0.032,0.017v0.001l-2.474,1.31  c0,0,1.302-0.329,2.763-0.751l0.001,0.004c1.088-0.314,1.837-0.443,3.059-1.001c1.326-0.653,2.813-1.36,3.719-1.712  c3.498-1.358,4.621-1.011,4.941-0.799c0.13,0.085,0.306,0.253,0.321,0.705c0.054,1.627-4.652,4.207-7.795,5.203h-0.005l-3.488,1.24  c0,0,0.004-0.001,0.013-0.001c0.004-0.001,0.009-0.001,0.018-0.002c0.011-0.001,0.024-0.003,0.042-0.004  c0.003,0,0.006-0.001,0.01-0.001c0.361-0.037,1.903-0.186,3.603-0.262c0.008,0,0.013-0.001,0.018-0.001  c1.105-0.049,2.274-0.067,3.222-0.003l-0.002,0.006c1.643,0.1,3.249,0.498,3.446,1.582c0.06,0.333-0.005,0.592-0.207,0.816  c-0.795,0.891-3.471,1.059-4.969,0.955l-3.505-0.24l3.257,1.313c1.044,0.422,2.819,1.388,3.135,2.188  c0.067,0.169,0.038,0.271,0.004,0.348c-0.397,0.852-2.702,0.353-3.692-0.006l-2.261-0.82l1.669,1.73  c0.34,0.352,0.66,0.865,0.67,1.061c-0.094,0.047-0.519,0.186-1.91-0.108l-0.002,0.015c0.021,0.032,0.701,1.061,1.538,1.113  c0.826,0.052,1.262-0.285,1.42-0.609c0.113-0.301,0.074-0.623-0.036-0.932c1.103,0.215,2.534,0.287,3.296-0.509  c0.104,0.041,0.2,0.079,0.253,0.099c2.062,0.842,4.051,2.035,4.413,2.635c-0.024,0.018-0.057,0.035-0.096,0.059  c-0.177,0.094-0.616,0.252-1.577,0.252c-2.011,0-4.577-0.682-4.603-0.688c-0.483-0.131-0.981,0.146-1.13,0.625  c-0.146,0.477,0.111,0.984,0.584,1.15c0.364,0.127,9.025,3.115,16.199,3.381c0.507,0.02,1.044,0.029,1.597,0.029  c4.501,0,9.442-0.615,12.396-1.055L78.614,62.783z"></path><circle fill="#FFFFFF" cx="30.294" cy="49.318" r="1.354"></circle></svg>